SplineFontDB: 3.2
FontName: Untitled1
FullName: Untitled1
FamilyName: Untitled1
Weight: Regular
Copyright: Copyright (c) 2025, Bastien
UComments: "2025-8-10: Created with FontForge (http://fontforge.org)"
Version: 001.000
ItalicAngle: 0
UnderlinePosition: -100
UnderlineWidth: 50
Ascent: 800
Descent: 200
InvalidEm: 0
LayerCount: 2
Layer: 0 0 "Arri+AOgA-re" 1
Layer: 1 0 "Avant" 0
XUID: [1021 235 990723040 14440097]
OS2Version: 0
OS2_WeightWidthSlopeOnly: 0
OS2_UseTypoMetrics: 1
CreationTime: 1754849682
ModificationTime: 1754849682
OS2TypoAscent: 0
OS2TypoAOffset: 1
OS2TypoDescent: 0
OS2TypoDOffset: 1
OS2TypoLinegap: 0
OS2WinAscent: 0
OS2WinAOffset: 1
OS2WinDescent: 0
OS2WinDOffset: 1
HheadAscent: 0
HheadAOffset: 1
HheadDescent: 0
HheadDOffset: 1
OS2Vendor: 'PfEd'
DEI: 91125
Encoding: ISO8859-1
UnicodeInterp: none
NameList: AGL For New Fonts
DisplaySize: -48
AntiAlias: 1
FitToEm: 0
WinInfo: 60 15 12
BeginChars: 256 95

StartChar: exclam
Encoding: 33 33 1
Width: 296
Flags: HW
LayerCount: 2
Fore
SplineSet
129.296875 722 m 1
 176.37109375 722 l 1
 174.017578125 238.848632812 l 1
 131.651367188 238.848632812 l 1
 129.296875 722 l 1
181.666992188 29.7099609375 m 0
 181.666992188 22.0625 178.62890625 14.7294921875 173.221679688 9.322265625 c 0
 167.814453125 3.9150390625 160.481445312 0.876953125 152.833984375 0.876953125 c 0
 145.186523438 0.876953125 137.853515625 3.9150390625 132.447265625 9.322265625 c 0
 127.040039062 14.7294921875 124.000976562 22.0625 124.000976562 29.7099609375 c 0
 124.000976562 37.357421875 127.040039062 44.6904296875 132.447265625 50.09765625 c 0
 137.853515625 55.50390625 145.186523438 58.5419921875 152.833984375 58.5419921875 c 0
 160.481445312 58.5419921875 167.814453125 55.50390625 173.221679688 50.09765625 c 0
 178.62890625 44.6904296875 181.666992188 37.357421875 181.666992188 29.7099609375 c 0
EndSplineSet
EndChar

StartChar: quotedbl
Encoding: 34 34 2
Width: 375
Flags: HW
LayerCount: 2
Fore
SplineSet
157.783203125 772.958007812 m 1
 202.465820312 772.958007812 l 1
 202.465820312 577.38671875 l 1
 157.783203125 577.38671875 l 1
 157.783203125 772.958007812 l 1
228.436523438 577.38671875 m 1
 183.752929688 577.38671875 l 1
 183.752929688 772.958007812 l 1
 228.436523438 772.958007812 l 1
 228.436523438 577.38671875 l 1
EndSplineSet
EndChar

StartChar: numbersign
Encoding: 35 35 3
Width: 691
Flags: HW
LayerCount: 2
Fore
SplineSet
92.6962890625 498.452148438 m 1
 92.6962890625 536.567382812 l 1
 617.836914062 536.567382812 l 1
 617.836914062 498.452148438 l 1
 92.6962890625 498.452148438 l 1
92.6962890625 230.606445312 m 1
 92.6962890625 268.72265625 l 1
 617.836914062 268.72265625 l 1
 617.836914062 230.606445312 l 1
 92.6962890625 230.606445312 l 1
92.6962890625 0.876953125 m 1
 275.5546875 722 l 1
 321.508789062 722 l 1
 138.650390625 0.876953125 l 1
 92.6962890625 0.876953125 l 1
389.0234375 0.876953125 m 1
 571.8828125 722 l 1
 617.836914062 722 l 1
 434.977539062 0.876953125 l 1
 389.0234375 0.876953125 l 1
EndSplineSet
EndChar

StartChar: dollar
Encoding: 36 36 4
Width: 568
Flags: HW
LayerCount: 2
Fore
SplineSet
298.005859375 692.155273438 m 0
 385.598632812 692.155273438 468.724609375 653.48828125 525.154296875 586.493164062 c 1
 503.21875 557.251953125 l 1
 453.247070312 619.430664062 377.77734375 655.599609375 298.005859375 655.599609375 c 0
 186.571289062 655.599609375 100.373046875 614.555664062 100.373046875 513.99609375 c 0
 100.373046875 432.943359375 156.412109375 389.950195312 239.010742188 372.392578125 c 2
 352.958984375 348.171875 l 2
 458.239257812 325.79296875 529.143554688 270.327148438 529.143554688 166.859375 c 0
 529.143554688 40.7080078125 424.525390625 -15.2509765625 286.36328125 -15.2509765625 c 0
 197.6328125 -15.2509765625 113.282226562 23.30859375 55.2265625 90.41015625 c 1
 77.162109375 119.65234375 l 1
 128.775390625 57.3564453125 205.46484375 21.3037109375 286.36328125 21.3037109375 c 0
 398.411132812 21.3037109375 483.997070312 65.0439453125 483.997070312 166.859375 c 0
 483.997070312 249.271484375 428.87109375 294.6640625 345.358398438 312.415039062 c 2
 231.41015625 336.635742188 l 2
 127.03515625 358.822265625 55.2265625 411.869140625 55.2265625 513.99609375 c 0
 55.2265625 638.861328125 160.463867188 692.155273438 298.005859375 692.155273438 c 0
275.969726562 772.676757812 m 1
 320.041992188 772.676757812 l 1
 308.400390625 -95.7734375 l 1
 264.327148438 -95.7734375 l 1
 275.969726562 772.676757812 l 1
EndSplineSet
EndChar

StartChar: percent
Encoding: 37 37 5
Width: 775
Flags: HW
LayerCount: 2
Fore
SplineSet
156.250976562 0.876953125 m 1
 593.2421875 722 l 1
 640.31640625 722 l 1
 203.325195312 0.876953125 l 1
 156.250976562 0.876953125 l 1
200.3828125 730.241210938 m 1
 300.102539062 730.241210938 359.290039062 662.704101562 359.290039062 560.77734375 c 0
 359.290039062 458.850585938 300.102539062 391.3125 200.3828125 391.3125 c 0
 100.663085938 391.3125 41.4755859375 458.850585938 41.4755859375 560.77734375 c 0
 41.4755859375 662.704101562 100.663085938 730.241210938 200.3828125 730.241210938 c 1
 200.3828125 692.125 l 1
 127.454101562 692.125 88.5498046875 637.724609375 88.5498046875 560.77734375 c 0
 88.5498046875 483.829101562 127.454101562 429.428710938 200.3828125 429.428710938 c 0
 273.311523438 429.428710938 312.215820312 483.829101562 312.215820312 560.77734375 c 0
 312.215820312 637.724609375 273.311523438 692.125 200.3828125 692.125 c 1
 200.3828125 730.241210938 l 1
596.184570312 -7.3642578125 m 1
 496.46484375 -7.3642578125 437.27734375 60.1728515625 437.27734375 162.099609375 c 0
 437.27734375 264.026367188 496.46484375 331.564453125 596.184570312 331.564453125 c 0
 695.904296875 331.564453125 755.091796875 264.026367188 755.091796875 162.099609375 c 0
 755.091796875 60.1728515625 695.904296875 -7.3642578125 596.184570312 -7.3642578125 c 1
 596.184570312 30.7509765625 l 1
 669.11328125 30.7509765625 708.017578125 85.15234375 708.017578125 162.099609375 c 0
 708.017578125 239.047851562 669.11328125 293.448242188 596.184570312 293.448242188 c 0
 523.255859375 293.448242188 484.3515625 239.047851562 484.3515625 162.099609375 c 0
 484.3515625 85.15234375 523.255859375 30.7509765625 596.184570312 30.7509765625 c 1
 596.184570312 -7.3642578125 l 1
EndSplineSet
EndChar

StartChar: ampersand
Encoding: 38 38 6
Width: 677
Flags: HW
LayerCount: 2
Fore
SplineSet
382.34375 722 m 0
 467.397460938 722 546.271484375 677.56640625 590.345703125 604.82421875 c 1
 567.473632812 574.333007812 l 1
 530.376953125 641.895507812 459.420898438 683.883789062 382.34375 683.883789062 c 0
 281.206054688 683.883789062 192 676.430664062 192 589.579101562 c 0
 192 459.978515625 470.040039062 49.072265625 590.345703125 0.876953125 c 1
 543.271484375 0.876953125 l 1
 422.966796875 49.072265625 144.926757812 459.978515625 144.926757812 589.579101562 c 0
 144.926757812 700.50390625 254.043945312 722 382.34375 722 c 0
626.389648438 174.229492188 m 1
 563.932617188 62.126953125 445.66796875 -7.3642578125 317.340820312 -7.3642578125 c 0
 160.141601562 -7.3642578125 57.583984375 86.384765625 57.583984375 241.250976562 c 0
 57.583984375 362.512695312 145.012695312 429.999023438 271.4921875 429.999023438 c 1
 271.4921875 395.93359375 l 1
 171.478515625 395.93359375 104.658203125 338.727539062 104.658203125 241.250976562 c 0
 104.658203125 111.633789062 187.265625 30.7509765625 317.340820312 30.7509765625 c 0
 433.720703125 30.7509765625 540.706054688 94.640625 595.899414062 197.100585938 c 1
 626.389648438 174.229492188 l 1
EndSplineSet
EndChar

StartChar: quotesingle
Encoding: 39 39 7
Width: 144
Flags: HW
LayerCount: 2
Fore
SplineSet
52.08203125 800 m 1
 98.0068359375 800 l 1
 95.7109375 598.993164062 l 1
 54.37890625 598.993164062 l 1
 52.08203125 800 l 1
EndSplineSet
EndChar

StartChar: parenleft
Encoding: 40 40 8
Width: 328
Flags: HW
LayerCount: 2
Fore
SplineSet
264.862304688 772.958007812 m 1
 301.04296875 772.958007812 l 1
 192.627929688 652.029296875 132.670898438 495.334960938 132.670898438 332.923828125 c 0
 132.670898438 170.512695312 192.627929688 13.8173828125 301.04296875 -107.110351562 c 1
 264.862304688 -107.110351562 l 1
 151.359375 11.2666015625 87.98828125 168.922851562 87.98828125 332.923828125 c 0
 87.98828125 496.923828125 151.359375 654.581054688 264.862304688 772.958007812 c 1
EndSplineSet
EndChar

StartChar: parenright
Encoding: 41 41 9
Width: 328
Flags: HW
LayerCount: 2
Fore
SplineSet
37.138671875 772.958007812 m 1
 73.318359375 772.958007812 l 1
 186.822265625 654.581054688 250.193359375 496.923828125 250.193359375 332.923828125 c 0
 250.193359375 168.922851562 186.822265625 11.2666015625 73.318359375 -107.110351562 c 1
 37.138671875 -107.110351562 l 1
 145.553710938 13.8173828125 205.510742188 170.512695312 205.510742188 332.923828125 c 0
 205.510742188 495.334960938 145.553710938 652.029296875 37.138671875 772.958007812 c 1
EndSplineSet
EndChar

StartChar: asterisk
Encoding: 42 42 10
Width: 525
Flags: HW
LayerCount: 2
Fore
SplineSet
263.677734375 582.075195312 m 1
 73.5341796875 640.870117188 l 1
 87.5849609375 684.112304688 l 1
 275.971679688 619.912109375 l 1
 263.677734375 582.075195312 l 1
285.91796875 589.301757812 m 1
 171.244140625 426.630859375 l 1
 134.458984375 453.356445312 l 1
 253.731445312 612.685546875 l 1
 285.91796875 589.301757812 l 1
285.91796875 612.685546875 m 1
 405.189453125 453.356445312 l 1
 368.405273438 426.630859375 l 1
 253.731445312 589.301757812 l 1
 285.91796875 612.685546875 l 1
263.677734375 619.912109375 m 1
 452.064453125 684.112304688 l 1
 466.114257812 640.870117188 l 1
 275.971679688 582.075195312 l 1
 263.677734375 619.912109375 l 1
249.932617188 600.993164062 m 1
 247.090820312 800 l 1
 292.55859375 800 l 1
 289.716796875 600.993164062 l 1
 249.932617188 600.993164062 l 1
EndSplineSet
EndChar

StartChar: plus
Encoding: 43 43 11
Width: 593
Flags: HW
LayerCount: 2
Fore
SplineSet
76.921875 270.263671875 m 1
 76.921875 308.379882812 l 1
 532.39453125 308.379882812 l 1
 532.39453125 270.263671875 l 1
 76.921875 270.263671875 l 1
281.12109375 61.5859375 m 1
 281.12109375 517.057617188 l 1
 328.1953125 517.057617188 l 1
 328.1953125 61.5859375 l 1
 281.12109375 61.5859375 l 1
EndSplineSet
EndChar

StartChar: comma
Encoding: 44 44 12
Width: 227
Flags: HW
LayerCount: 2
Fore
SplineSet
130.159179688 103.89453125 m 1
 177.232421875 103.89453125 l 1
 99.9501953125 -102.140625 l 1
 57.583984375 -102.140625 l 1
 130.159179688 103.89453125 l 1
EndSplineSet
EndChar

StartChar: hyphen
Encoding: 45 45 13
Width: 593
Flags: HW
LayerCount: 2
Fore
SplineSet
76.921875 270.263671875 m 1
 76.921875 308.379882812 l 1
 532.39453125 308.379882812 l 1
 532.39453125 270.263671875 l 1
 76.921875 270.263671875 l 1
EndSplineSet
EndChar

StartChar: period
Encoding: 46 46 14
Width: 247
Flags: HW
LayerCount: 2
Fore
SplineSet
156.362304688 21.4677734375 m 0
 156.362304688 13.8212890625 153.32421875 6.48828125 147.91796875 1.0810546875 c 0
 142.510742188 -4.326171875 135.177734375 -7.3642578125 127.530273438 -7.3642578125 c 0
 119.8828125 -7.3642578125 112.549804688 -4.326171875 107.142578125 1.0810546875 c 0
 101.735351562 6.48828125 98.697265625 13.8212890625 98.697265625 21.4677734375 c 0
 98.697265625 29.115234375 101.735351562 36.4482421875 107.142578125 41.85546875 c 0
 112.549804688 47.2626953125 119.8828125 50.30078125 127.530273438 50.30078125 c 0
 135.177734375 50.30078125 142.510742188 47.2626953125 147.91796875 41.85546875 c 0
 153.32421875 36.4482421875 156.362304688 29.115234375 156.362304688 21.4677734375 c 0
EndSplineSet
EndChar

StartChar: slash
Encoding: 47 47 15
Width: 410
Flags: HW
LayerCount: 2
Fore
SplineSet
335.866210938 730.241210938 m 1
 382.940429688 730.241210938 l 1
 86.2001953125 -7.3642578125 l 1
 39.1259765625 -7.3642578125 l 1
 335.866210938 730.241210938 l 1
EndSplineSet
EndChar

StartChar: zero
Encoding: 48 48 16
Width: 543
Flags: HW
LayerCount: 2
Fore
SplineSet
279.354492188 730.241210938 m 1
 455.219726562 730.241210938 501.124023438 563.06640625 501.124023438 361.438476562 c 0
 501.124023438 159.810546875 455.219726562 -7.3642578125 279.354492188 -7.3642578125 c 0
 103.48828125 -7.3642578125 57.583984375 159.810546875 57.583984375 361.438476562 c 0
 57.583984375 563.06640625 103.48828125 730.241210938 279.354492188 730.241210938 c 1
 279.354492188 692.125 l 1
 126.709960938 692.125 104.658203125 538.729492188 104.658203125 361.438476562 c 0
 104.658203125 184.147460938 126.709960938 30.7509765625 279.354492188 30.7509765625 c 0
 431.999023438 30.7509765625 454.05078125 184.147460938 454.05078125 361.438476562 c 0
 454.05078125 538.729492188 431.999023438 692.125 279.354492188 692.125 c 1
 279.354492188 730.241210938 l 1
EndSplineSet
EndChar

StartChar: one
Encoding: 49 49 17
Width: 543
Flags: HW
LayerCount: 2
Fore
SplineSet
259.296875 722 m 1
 306.37109375 722 l 1
 306.37109375 0.876953125 l 1
 259.296875 0.876953125 l 1
 259.296875 722 l 1
73.3818359375 38.9931640625 m 1
 502.026367188 38.9931640625 l 1
 502.026367188 0.876953125 l 1
 73.3818359375 0.876953125 l 1
 73.3818359375 38.9931640625 l 1
73.3818359375 630.954101562 m 1
 259.296875 722 l 1
 259.296875 680.185546875 l 1
 73.3818359375 589.139648438 l 1
 73.3818359375 630.954101562 l 1
EndSplineSet
EndChar

StartChar: two
Encoding: 50 50 18
Width: 543
Flags: HW
LayerCount: 2
Fore
SplineSet
67.509765625 620.069335938 m 1
 105.08984375 688.045898438 176.631835938 730.241210938 254.3046875 730.241210938 c 0
 386.131835938 730.241210938 470.513671875 649.219726562 470.513671875 518.283203125 c 0
 470.513671875 434.73046875 412.78125 367.31640625 357.53515625 304.553710938 c 0
 357.514648438 304.530273438 101.420898438 13.59375 101.400390625 13.5703125 c 2
 67.509765625 38.9931640625 l 1
 67.53125 39.0166015625 323.624023438 329.952148438 323.645507812 329.9765625 c 0
 372.349609375 385.306640625 423.440429688 444.622070312 423.440429688 518.283203125 c 0
 423.440429688 624.124023438 359.109375 692.36328125 254.3046875 692.36328125 c 0
 184.4765625 692.36328125 120.796875 652.434570312 90.3818359375 589.579101562 c 1
 67.509765625 620.069335938 l 1
67.509765625 0.876953125 m 1
 67.509765625 38.9931640625 l 1
 470.513671875 38.9931640625 l 1
 470.513671875 0.876953125 l 1
 67.509765625 0.876953125 l 1
EndSplineSet
EndChar

StartChar: three
Encoding: 51 51 19
Width: 543
Flags: HW
LayerCount: 2
Fore
SplineSet
73.3818359375 722 m 1
 466.012695312 722 l 1
 466.012695312 693.591796875 l 1
 233.646484375 429.946289062 l 1
 186.573242188 429.946289062 l 1
 402.37890625 684.122070312 l 1
 73.3818359375 684.122070312 l 1
 73.3818359375 722 l 1
186.573242188 429.946289062 m 1
 233.646484375 429.946289062 l 2
 388.456054688 429.946289062 501.124023438 357.788085938 501.124023438 213.315429688 c 0
 501.124023438 72.2880859375 400.764648438 -7.3642578125 254.3046875 -7.3642578125 c 0
 175.180664062 -7.3642578125 101.981445312 34.560546875 61.9462890625 102.807617188 c 1
 84.818359375 133.297851562 l 1
 117.844726562 70.25390625 183.133789062 30.7509765625 254.3046875 30.7509765625 c 0
 373.55859375 30.7509765625 454.05078125 97.6435546875 454.05078125 213.315429688 c 0
 454.05078125 336.645507812 355.677734375 395.879882812 222.466796875 395.879882812 c 2
 198.341796875 395.879882812 l 1
 186.573242188 429.946289062 l 1
EndSplineSet
EndChar

StartChar: four
Encoding: 52 52 20
Width: 543
Flags: HW
LayerCount: 2
Fore
SplineSet
322.6171875 722 m 1
 369.69140625 722 l 1
 104.658203125 204.596679688 l 1
 57.583984375 204.596679688 l 1
 322.6171875 722 l 1
57.583984375 166.48046875 m 1
 57.583984375 204.596679688 l 1
 519.583007812 204.596679688 l 1
 519.583007812 166.48046875 l 1
 57.583984375 166.48046875 l 1
353.239257812 354.583984375 m 1
 400.313476562 393.887695312 l 1
 400.313476562 0.876953125 l 1
 353.239257812 0.876953125 l 1
 353.239257812 354.583984375 l 1
EndSplineSet
EndChar

StartChar: five
Encoding: 53 53 21
Width: 543
Flags: HW
LayerCount: 2
Fore
SplineSet
105.387695312 722 m 1
 465.848632812 722 l 1
 465.848632812 684.360351562 l 1
 105.387695312 684.360351562 l 1
 105.387695312 722 l 1
105.387695312 722 m 1
 151.873046875 722 l 1
 139.181640625 339.801757812 l 1
 92.6962890625 339.801757812 l 1
 105.387695312 722 l 1
110.862304688 339.801757812 m 1
 139.079101562 426.975585938 200.16015625 471.405273438 291.787109375 471.405273438 c 0
 425.208007812 471.405273438 501.124023438 377.1015625 501.124023438 238.848632812 c 0
 501.124023438 87.0693359375 404.009765625 -7.3642578125 251.518554688 -7.3642578125 c 0
 174.025390625 -7.3642578125 101.498046875 30.7783203125 57.583984375 94.626953125 c 1
 80.169921875 124.736328125 l 1
 117.282226562 65.9169921875 181.969726562 30.2451171875 251.518554688 30.2451171875 c 0
 377.047851562 30.2451171875 454.05078125 112.046875 454.05078125 238.848632812 c 0
 454.05078125 355.395507812 394.303710938 437.33984375 283.52734375 437.33984375 c 0
 220.012695312 437.33984375 162.875976562 398.73046875 139.181640625 339.801757812 c 1
 110.862304688 339.801757812 l 1
EndSplineSet
EndChar

StartChar: six
Encoding: 54 54 22
Width: 543
Flags: HW
LayerCount: 2
Fore
SplineSet
490.7109375 650.009765625 m 1
 468.124023438 619.900390625 l 1
 431.692382812 665.845703125 376.267578125 692.631835938 317.629882812 692.631835938 c 0
 141.821289062 692.631835938 104.658203125 521.125 104.658203125 318.172851562 c 2
 104.658203125 224.423828125 l 2
 104.658203125 109.016601562 167.994140625 30.2744140625 279.354492188 30.2744140625 c 0
 398.0859375 30.2744140625 472.508789062 105.483398438 472.508789062 224.423828125 c 0
 472.508789062 347.29296875 406.545898438 431.993164062 288.583007812 431.993164062 c 0
 170.62109375 431.993164062 104.658203125 347.29296875 104.658203125 224.423828125 c 1
 76.0712890625 224.423828125 l 1
 76.0712890625 355.615234375 170.221679688 469.602539062 296.842773438 469.602539062 c 0
 438.297851562 469.602539062 519.583007812 370.553710938 519.583007812 224.423828125 c 0
 519.583007812 80.44921875 425.096679688 -7.3642578125 279.354492188 -7.3642578125 c 0
 117.186523438 -7.3642578125 57.583984375 136.36328125 57.583984375 318.172851562 c 0
 57.583984375 545.243164062 118.075195312 730.241210938 317.629882812 730.241210938 c 0
 384.3125 730.241210938 447.616210938 700.896484375 490.7109375 650.009765625 c 1
EndSplineSet
EndChar

StartChar: seven
Encoding: 55 55 23
Width: 543
Flags: HW
LayerCount: 2
Fore
SplineSet
57.583984375 683.883789062 m 1
 57.583984375 722 l 1
 501.124023438 722 l 1
 501.124023438 683.883789062 l 1
 57.583984375 683.883789062 l 1
454.05078125 683.883789062 m 1
 501.124023438 683.883789062 l 1
 205.46875 0.876953125 l 1
 158.395507812 0.876953125 l 1
 454.05078125 683.883789062 l 1
EndSplineSet
EndChar

StartChar: eight
Encoding: 56 56 24
Width: 543
Flags: HW
LayerCount: 2
Fore
SplineSet
279.354492188 692.631835938 m 1
 279.354492188 730.241210938 l 1
 394.057617188 730.241210938 466.012695312 657.663085938 466.012695312 542.793945312 c 0
 466.012695312 429.33203125 393.369140625 358.771484375 279.354492188 358.771484375 c 0
 165.338867188 358.771484375 92.6962890625 429.33203125 92.6962890625 542.793945312 c 0
 92.6962890625 657.663085938 164.651367188 730.241210938 279.354492188 730.241210938 c 1
 279.354492188 692.631835938 l 1
 191.547851562 692.631835938 139.76953125 632.743164062 139.76953125 542.793945312 c 0
 139.76953125 452.845703125 191.547851562 392.956054688 279.354492188 392.956054688 c 0
 367.161132812 392.956054688 418.938476562 452.845703125 418.938476562 542.793945312 c 0
 418.938476562 632.743164062 367.161132812 692.631835938 279.354492188 692.631835938 c 1
279.354492188 357.9375 m 1
 279.354492188 392.123046875 l 1
 410.829101562 392.123046875 501.124023438 320.96484375 501.124023438 194.508789062 c 0
 501.124023438 66.4033203125 411.60546875 -7.3642578125 279.354492188 -7.3642578125 c 0
 147.102539062 -7.3642578125 57.583984375 66.4033203125 57.583984375 194.508789062 c 0
 57.583984375 320.96484375 147.87890625 392.123046875 279.354492188 392.123046875 c 1
 279.354492188 357.9375 l 1
 174.353515625 357.9375 104.658203125 297.154296875 104.658203125 194.508789062 c 0
 104.658203125 91.53125 174.1953125 30.2451171875 279.354492188 30.2451171875 c 0
 384.513671875 30.2451171875 454.05078125 91.53125 454.05078125 194.508789062 c 0
 454.05078125 297.154296875 384.35546875 357.9375 279.354492188 357.9375 c 1
EndSplineSet
EndChar

StartChar: nine
Encoding: 57 57 25
Width: 543
Flags: HW
LayerCount: 2
Fore
SplineSet
81.888671875 102.9765625 m 1
 125.256835938 56.580078125 185.921875 30.2451171875 249.430664062 30.2451171875 c 0
 455.482421875 30.2451171875 454.05078125 247.865234375 454.05078125 487.63671875 c 0
 454.05078125 607.756835938 393.233398438 692.631835938 279.354492188 692.631835938 c 0
 165.475585938 692.631835938 104.658203125 607.756835938 104.658203125 487.63671875 c 0
 104.658203125 371.106445312 167.40234375 290.883789062 279.354492188 290.883789062 c 0
 391.305664062 290.883789062 454.05078125 371.106445312 454.05078125 487.63671875 c 1
 480.493164062 487.63671875 l 1
 494.596679688 362.6875 396.837890625 253.274414062 271.094726562 253.274414062 c 0
 135.647460938 253.274414062 57.583984375 347.84375 57.583984375 487.63671875 c 0
 57.583984375 632.484375 138.850585938 730.241210938 279.354492188 730.241210938 c 0
 440.092773438 730.241210938 501.124023438 589.131835938 501.124023438 409.516601562 c 0
 501.124023438 181.456054688 448.46484375 -7.3642578125 249.430664062 -7.3642578125 c 0
 177.826171875 -7.3642578125 109.259765625 21.5693359375 59.302734375 72.8671875 c 1
 81.888671875 102.9765625 l 1
EndSplineSet
EndChar

StartChar: colon
Encoding: 58 58 26
Width: 271
Flags: HW
LayerCount: 2
Fore
SplineSet
169.015625 21.4677734375 m 0
 169.015625 13.8212890625 165.9765625 6.48828125 160.5703125 1.0810546875 c 0
 155.163085938 -4.326171875 147.830078125 -7.3642578125 140.182617188 -7.3642578125 c 0
 132.53515625 -7.3642578125 125.202148438 -4.326171875 119.794921875 1.0810546875 c 0
 114.387695312 6.48828125 111.349609375 13.8212890625 111.349609375 21.4677734375 c 0
 111.349609375 29.115234375 114.387695312 36.4482421875 119.794921875 41.85546875 c 0
 125.202148438 47.2626953125 132.53515625 50.30078125 140.182617188 50.30078125 c 0
 147.830078125 50.30078125 155.163085938 47.2626953125 160.5703125 41.85546875 c 0
 165.9765625 36.4482421875 169.015625 29.115234375 169.015625 21.4677734375 c 0
169.015625 515.9765625 m 0
 169.015625 508.329101562 165.9765625 500.99609375 160.5703125 495.58984375 c 0
 155.163085938 490.182617188 147.830078125 487.14453125 140.182617188 487.14453125 c 0
 132.53515625 487.14453125 125.202148438 490.182617188 119.794921875 495.58984375 c 0
 114.387695312 500.99609375 111.349609375 508.329101562 111.349609375 515.9765625 c 0
 111.349609375 523.624023438 114.387695312 530.95703125 119.794921875 536.364257812 c 0
 125.202148438 541.771484375 132.53515625 544.809570312 140.182617188 544.809570312 c 0
 147.830078125 544.809570312 155.163085938 541.771484375 160.5703125 536.364257812 c 0
 165.9765625 530.95703125 169.015625 523.624023438 169.015625 515.9765625 c 0
EndSplineSet
EndChar

StartChar: semicolon
Encoding: 59 59 27
Width: 271
Flags: HW
LayerCount: 2
Fore
SplineSet
169.015625 21.4677734375 m 0
 169.015625 13.8212890625 165.9765625 6.48828125 160.5703125 1.0810546875 c 0
 155.163085938 -4.326171875 147.830078125 -7.3642578125 140.182617188 -7.3642578125 c 0
 132.53515625 -7.3642578125 125.202148438 -4.326171875 119.794921875 1.0810546875 c 0
 114.387695312 6.48828125 111.349609375 13.8212890625 111.349609375 21.4677734375 c 0
 111.349609375 29.115234375 114.387695312 36.4482421875 119.794921875 41.85546875 c 0
 125.202148438 47.2626953125 132.53515625 50.30078125 140.182617188 50.30078125 c 0
 147.830078125 50.30078125 155.163085938 47.2626953125 160.5703125 41.85546875 c 0
 165.9765625 36.4482421875 169.015625 29.115234375 169.015625 21.4677734375 c 0
175.70703125 103.89453125 m 1
 222.78125 103.89453125 l 1
 99.9501953125 -102.140625 l 1
 57.583984375 -102.140625 l 1
 175.70703125 103.89453125 l 1
EndSplineSet
EndChar

StartChar: less
Encoding: 60 60 28
Width: 553
Flags: HW
LayerCount: 2
Fore
SplineSet
57.583984375 249.665039062 m 1
 57.583984375 287.780273438 l 1
 511.24609375 549.802734375 l 1
 511.24609375 502.729492188 l 1
 57.583984375 249.665039062 l 1
57.583984375 249.665039062 m 1
 57.583984375 287.780273438 l 1
 511.24609375 34.7158203125 l 1
 511.24609375 -12.3583984375 l 1
 57.583984375 249.665039062 l 1
EndSplineSet
EndChar

StartChar: equal
Encoding: 61 61 29
Width: 593
Flags: HW
LayerCount: 2
Fore
SplineSet
92.6962890625 312.293945312 m 1
 92.6962890625 350.41015625 l 1
 516.620117188 350.41015625 l 1
 516.620117188 312.293945312 l 1
 92.6962890625 312.293945312 l 1
516.620117188 225.150390625 m 1
 516.620117188 187.03515625 l 1
 92.6962890625 187.03515625 l 1
 92.6962890625 225.150390625 l 1
 516.620117188 225.150390625 l 1
EndSplineSet
EndChar

StartChar: greater
Encoding: 62 62 30
Width: 553
Flags: HW
LayerCount: 2
Fore
SplineSet
511.24609375 249.665039062 m 1
 57.583984375 502.729492188 l 1
 57.583984375 549.802734375 l 1
 511.24609375 287.780273438 l 1
 511.24609375 249.665039062 l 1
511.24609375 249.665039062 m 1
 57.583984375 -12.3583984375 l 1
 57.583984375 34.7158203125 l 1
 511.24609375 287.780273438 l 1
 511.24609375 249.665039062 l 1
EndSplineSet
EndChar

StartChar: question
Encoding: 63 63 31
Width: 509
Flags: HW
LayerCount: 2
Fore
SplineSet
41.703125 620.069335938 m 1
 93.5498046875 689.41015625 175.060546875 730.241210938 261.640625 730.241210938 c 0
 384.25 730.241210938 465.698242188 659.3671875 465.698242188 539.551757812 c 0
 465.698242188 440.512695312 393.725585938 397.954101562 326.798828125 325.379882812 c 0
 283.251953125 278.158203125 248.685546875 220.950195312 248.685546875 156.818359375 c 1
 201.612304688 156.818359375 l 1
 201.612304688 236.244140625 253.327148438 302.397460938 309.19921875 359.189453125 c 0
 360.78125 411.62109375 418.624023438 466.151367188 418.624023438 539.551757812 c 0
 418.624023438 634.083007812 357.096679688 692.125 261.640625 692.125 c 0
 183.16015625 692.125 109.610351562 653.852539062 64.5751953125 589.579101562 c 1
 41.703125 620.069335938 l 1
253.981445312 21.4677734375 m 0
 253.981445312 13.8212890625 250.943359375 6.48828125 245.536132812 1.0810546875 c 0
 240.12890625 -4.326171875 232.795898438 -7.3642578125 225.1484375 -7.3642578125 c 0
 217.501953125 -7.3642578125 210.168945312 -4.326171875 204.76171875 1.0810546875 c 0
 199.354492188 6.48828125 196.31640625 13.8212890625 196.31640625 21.4677734375 c 0
 196.31640625 29.115234375 199.354492188 36.4482421875 204.76171875 41.85546875 c 0
 210.168945312 47.2626953125 217.501953125 50.30078125 225.1484375 50.30078125 c 0
 232.795898438 50.30078125 240.12890625 47.2626953125 245.536132812 41.85546875 c 0
 250.943359375 36.4482421875 253.981445312 29.115234375 253.981445312 21.4677734375 c 0
EndSplineSet
EndChar

StartChar: at
Encoding: 64 64 32
Width: 892
Flags: HW
LayerCount: 2
Fore
SplineSet
657.865234375 3.173828125 m 1
 657.865234375 -33.0556640625 l 1
 593.223632812 -53.658203125 525.78515625 -64.14453125 457.938476562 -64.14453125 c 0
 207.2109375 -64.14453125 54.734375 100.987304688 54.734375 355.068359375 c 0
 54.734375 609.1484375 207.2109375 774.28125 457.938476562 774.28125 c 0
 710.452148438 774.28125 861.14453125 604.284179688 861.14453125 346.665039062 c 0
 861.14453125 266.099609375 821.423828125 190.712890625 754.97265625 145.16015625 c 1
 734.6171875 143.423828125 l 1
 572.8515625 202.991210938 l 1
 590.125 234.837890625 l 1
 741.841796875 178.92578125 l 1
 789.30859375 221.770507812 816.400390625 282.720703125 816.400390625 346.665039062 c 0
 816.400390625 580.470703125 684.877929688 738.051757812 457.938476562 738.051757812 c 0
 232.838867188 738.051757812 99.4775390625 585.293945312 99.4775390625 355.068359375 c 0
 99.4775390625 124.841796875 232.838867188 -27.916015625 457.938476562 -27.916015625 c 0
 525.78515625 -27.916015625 593.223632812 -17.4287109375 657.865234375 3.173828125 c 1
590.125 549.698242188 m 1
 626.354492188 549.698242188 l 1
 609.081054688 202.991210938 l 1
 572.8515625 202.991210938 l 1
 590.125 549.698242188 l 1
585.266601562 452.186523438 m 1
 543.013671875 493.958984375 485.994140625 517.385742188 426.578125 517.385742188 c 0
 335.337890625 517.385742188 285.396484375 450.6796875 285.396484375 355.068359375 c 0
 285.396484375 253.689453125 332.146484375 179.653320312 426.578125 179.653320312 c 0
 483.5078125 179.653320312 538.482421875 200.421875 581.192382812 238.064453125 c 1
 575.010742188 206.97265625 l 1
 536.301757812 166.387695312 482.663085938 143.423828125 426.578125 143.423828125 c 0
 306.9140625 143.423828125 240.65234375 230.07421875 240.65234375 355.068359375 c 0
 240.65234375 474.439453125 309.844726562 553.615234375 426.578125 553.615234375 c 0
 496.864257812 553.615234375 563.814453125 523.638671875 610.625 471.208984375 c 1
 585.266601562 452.186523438 l 1
EndSplineSet
EndChar

StartChar: A
Encoding: 65 65 33
Width: 612
Flags: HW
LayerCount: 2
Fore
SplineSet
314.780273438 722 m 1
 338.31640625 722 l 1
 573.64453125 0.876953125 l 1
 526.5703125 0.876953125 l 1
 294.90234375 722 l 1
 314.780273438 722 l 1
291.243164062 722 m 1
 334.657226562 722 l 1
 102.631835938 0.876953125 l 1
 56.2734375 0.876953125 l 1
 291.243164062 722 l 1
150.051757812 234.249023438 m 1
 479.508789062 234.249023438 l 1
 479.508789062 200.18359375 l 1
 150.051757812 200.18359375 l 1
 150.051757812 234.249023438 l 1
EndSplineSet
EndChar

StartChar: B
Encoding: 66 66 34
Width: 602
Flags: HW
LayerCount: 2
Fore
SplineSet
92.6962890625 722 m 1
 328.629882812 722 l 2
 455.453125 722 547.421875 662.235351562 547.421875 543.649414062 c 0
 547.421875 425.9296875 455.046875 367.736328125 328.629882812 367.736328125 c 1
 92.6962890625 384.099609375 l 1
 92.6962890625 401.087890625 l 1
 328.629882812 401.087890625 l 2
 428.405273438 401.087890625 500.34765625 448.90234375 500.34765625 542.485351562 c 0
 500.34765625 636.068359375 428.405273438 683.883789062 328.629882812 683.883789062 c 2
 92.6962890625 683.883789062 l 1
 92.6962890625 722 l 1
92.6962890625 384.099609375 m 1
 328.629882812 384.412109375 l 2
 469.190429688 384.412109375 578.294921875 333.516601562 578.294921875 206.912109375 c 0
 578.294921875 70.6865234375 473.771484375 0.876953125 328.629882812 0.876953125 c 2
 92.6962890625 0.876953125 l 1
 116.233398438 38.9931640625 l 1
 328.629882812 38.9931640625 l 2
 445.880859375 38.9931640625 531.220703125 93.6337890625 531.220703125 203.051757812 c 0
 531.220703125 312.470703125 445.880859375 367.111328125 328.629882812 367.111328125 c 2
 92.6962890625 367.111328125 l 1
 92.6962890625 384.099609375 l 1
92.6962890625 722 m 1
 139.76953125 722 l 1
 139.76953125 0.876953125 l 1
 92.6962890625 0.876953125 l 1
 92.6962890625 722 l 1
EndSplineSet
EndChar

StartChar: C
Encoding: 67 67 35
Width: 598
Flags: HW
LayerCount: 2
Fore
SplineSet
552.942382812 596.481445312 m 1
 505.505859375 656.866210938 432.967773438 692.125 356.178710938 692.125 c 0
 183.197265625 692.125 104.658203125 550.177734375 104.658203125 361.438476562 c 0
 104.658203125 172.69921875 183.197265625 30.7509765625 356.178710938 30.7509765625 c 0
 443.2890625 30.7509765625 503.045898438 61.89453125 552.942382812 133.297851562 c 1
 575.814453125 102.807617188 l 1
 524.094726562 33.4765625 442.67578125 -7.3642578125 356.178710938 -7.3642578125 c 0
 157.012695312 -7.3642578125 57.583984375 148.000976562 57.583984375 361.438476562 c 0
 57.583984375 574.875 157.012695312 730.241210938 356.178710938 730.241210938 c 0
 450.553710938 730.241210938 515.612304688 699.651367188 575.814453125 626.971679688 c 1
 552.942382812 596.481445312 l 1
EndSplineSet
EndChar

StartChar: D
Encoding: 68 68 36
Width: 612
Flags: HW
LayerCount: 2
Fore
SplineSet
92.6962890625 683.883789062 m 1
 92.6962890625 722 l 1
 283.401367188 722 l 2
 475.1796875 722 574.283203125 575.671875 574.283203125 371.737304688 c 0
 574.283203125 158.65234375 480.390625 0.876953125 283.401367188 0.876953125 c 2
 92.6962890625 0.876953125 l 1
 92.6962890625 38.9931640625 l 1
 283.401367188 38.9931640625 l 2
 454.41796875 38.9931640625 527.208984375 183.28515625 527.208984375 371.737304688 c 0
 527.208984375 550.920898438 448.8515625 683.883789062 283.401367188 683.883789062 c 2
 92.6962890625 683.883789062 l 1
92.6962890625 722 m 1
 139.76953125 722 l 1
 139.76953125 0.876953125 l 1
 92.6962890625 0.876953125 l 1
 92.6962890625 722 l 1
EndSplineSet
EndChar

StartChar: E
Encoding: 69 69 37
Width: 543
Flags: HW
LayerCount: 2
Fore
SplineSet
92.6962890625 722 m 1
 139.76953125 722 l 1
 139.76953125 0.876953125 l 1
 92.6962890625 0.876953125 l 1
 92.6962890625 722 l 1
116.233398438 683.883789062 m 1
 116.233398438 722 l 1
 502.026367188 722 l 1
 502.026367188 683.883789062 l 1
 116.233398438 683.883789062 l 1
116.233398438 342.380859375 m 1
 116.233398438 380.49609375 l 1
 446.354492188 380.49609375 l 1
 446.354492188 342.380859375 l 1
 116.233398438 342.380859375 l 1
116.233398438 0.876953125 m 1
 116.233398438 38.9931640625 l 1
 529.862304688 38.9931640625 l 1
 529.862304688 0.876953125 l 1
 116.233398438 0.876953125 l 1
EndSplineSet
EndChar

StartChar: F
Encoding: 70 70 38
Width: 538
Flags: HW
LayerCount: 2
Fore
SplineSet
92.6962890625 722 m 1
 139.76953125 722 l 1
 139.76953125 0.876953125 l 1
 92.6962890625 0.876953125 l 1
 92.6962890625 722 l 1
116.233398438 683.883789062 m 1
 116.233398438 722 l 1
 497.470703125 722 l 1
 497.470703125 683.883789062 l 1
 116.233398438 683.883789062 l 1
116.233398438 342.380859375 m 1
 116.233398438 380.49609375 l 1
 442.3046875 380.49609375 l 1
 442.3046875 342.380859375 l 1
 116.233398438 342.380859375 l 1
EndSplineSet
EndChar

StartChar: G
Encoding: 71 71 39
Width: 642
Flags: HW
LayerCount: 2
Fore
SplineSet
579.46875 597.8203125 m 1
 523.489257812 657.963867188 445.0234375 692.125 362.859375 692.125 c 0
 187.612304688 692.125 104.658203125 551.250976562 104.658203125 361.438476562 c 0
 104.658203125 175.303710938 189.741210938 38.9931640625 362.859375 38.9931640625 c 0
 444.310546875 38.9931640625 525.209960938 52.3466796875 602.340820312 78.5224609375 c 1
 602.340820312 40.4072265625 l 1
 525.209960938 14.23046875 444.310546875 0.876953125 362.859375 0.876953125 c 0
 163.299804688 0.876953125 57.583984375 150.5078125 57.583984375 361.438476562 c 0
 57.583984375 575.997070312 161.293945312 730.241210938 362.859375 730.241210938 c 0
 453.225585938 730.241210938 539.694335938 693.4375 602.340820312 628.310546875 c 1
 579.46875 597.8203125 l 1
555.266601562 40.4072265625 m 1
 555.266601562 361.438476562 l 1
 602.340820312 361.438476562 l 1
 602.340820312 40.4072265625 l 1
 555.266601562 40.4072265625 l 1
602.340820312 380.49609375 m 1
 602.340820312 342.380859375 l 1
 329.961914062 342.380859375 l 1
 329.961914062 380.49609375 l 1
 602.340820312 380.49609375 l 1
EndSplineSet
EndChar

StartChar: H
Encoding: 72 72 40
Width: 602
Flags: HW
LayerCount: 2
Fore
SplineSet
92.6962890625 722 m 1
 139.76953125 722 l 1
 139.76953125 0.876953125 l 1
 92.6962890625 0.876953125 l 1
 92.6962890625 722 l 1
479.66796875 0.876953125 m 1
 479.66796875 722 l 1
 526.7421875 722 l 1
 526.7421875 0.876953125 l 1
 479.66796875 0.876953125 l 1
116.233398438 378.438476562 m 1
 116.233398438 416.5546875 l 1
 503.205078125 416.5546875 l 1
 503.205078125 378.438476562 l 1
 116.233398438 378.438476562 l 1
EndSplineSet
EndChar

StartChar: I
Encoding: 73 73 41
Width: 227
Flags: HW
LayerCount: 2
Fore
SplineSet
93.8720703125 722 m 1
 140.9453125 722 l 1
 140.9453125 0.876953125 l 1
 93.8720703125 0.876953125 l 1
 93.8720703125 722 l 1
EndSplineSet
EndChar

StartChar: J
Encoding: 74 74 42
Width: 474
Flags: HW
LayerCount: 2
Fore
SplineSet
348.086914062 722 m 1
 395.161132812 722 l 1
 395.161132812 221.723632812 l 2
 395.161132812 87.951171875 328.895507812 -7.3642578125 202.62890625 -7.3642578125 c 0
 118.224609375 -7.3642578125 62.146484375 34.50390625 38.1611328125 115.428710938 c 1
 61.0322265625 145.918945312 l 1
 74.2666015625 69.369140625 124.943359375 26.701171875 202.62890625 26.701171875 c 0
 303.692382812 26.701171875 348.086914062 110.870117188 348.086914062 221.723632812 c 2
 348.086914062 722 l 1
EndSplineSet
EndChar

StartChar: K
Encoding: 75 75 43
Width: 573
Flags: HW
LayerCount: 2
Fore
SplineSet
92.6962890625 722 m 1
 139.76953125 722 l 1
 139.76953125 0.876953125 l 1
 92.6962890625 0.876953125 l 1
 92.6962890625 722 l 1
473.044921875 722 m 1
 526.97265625 722 l 1
 186.84375 361.438476562 l 1
 526.97265625 0.876953125 l 1
 473.044921875 0.876953125 l 1
 139.76953125 361.438476562 l 1
 473.044921875 722 l 1
EndSplineSet
EndChar

StartChar: L
Encoding: 76 76 44
Width: 513
Flags: HW
LayerCount: 2
Fore
SplineSet
92.6962890625 722 m 1
 139.76953125 722 l 1
 139.76953125 0.876953125 l 1
 92.6962890625 0.876953125 l 1
 92.6962890625 722 l 1
116.233398438 0.876953125 m 1
 116.233398438 38.9931640625 l 1
 485.2265625 38.9931640625 l 1
 485.2265625 0.876953125 l 1
 116.233398438 0.876953125 l 1
EndSplineSet
EndChar

StartChar: M
Encoding: 77 77 45
Width: 741
Flags: HW
LayerCount: 2
Fore
SplineSet
92.6962890625 722 m 1
 139.76953125 722 l 1
 139.76953125 0.876953125 l 1
 92.6962890625 0.876953125 l 1
 92.6962890625 722 l 1
621.37109375 722 m 1
 668.444335938 722 l 1
 668.444335938 0.876953125 l 1
 621.37109375 0.876953125 l 1
 621.37109375 722 l 1
92.6962890625 722 m 1
 139.76953125 722 l 1
 399.627929688 181.158203125 l 1
 361.512695312 181.158203125 l 1
 92.6962890625 722 l 1
621.37109375 722 m 1
 668.444335938 722 l 1
 399.627929688 181.158203125 l 1
 361.512695312 181.158203125 l 1
 621.37109375 722 l 1
EndSplineSet
EndChar

StartChar: N
Encoding: 78 78 46
Width: 632
Flags: HW
LayerCount: 2
Fore
SplineSet
92.6962890625 722 m 1
 139.76953125 722 l 1
 139.76953125 0.876953125 l 1
 92.6962890625 0.876953125 l 1
 92.6962890625 722 l 1
510.033203125 722 m 1
 557.106445312 722 l 1
 557.106445312 0.876953125 l 1
 510.033203125 0.876953125 l 1
 510.033203125 722 l 1
92.6962890625 722 m 1
 139.76953125 722 l 1
 548.149414062 0.876953125 l 1
 510.033203125 0.876953125 l 1
 92.6962890625 722 l 1
EndSplineSet
EndChar

StartChar: O
Encoding: 79 79 47
Width: 652
Flags: HW
LayerCount: 2
Fore
SplineSet
335.0234375 730.241210938 m 1
 526.920898438 730.241210938 612.461914062 571.444335938 612.461914062 361.438476562 c 0
 612.461914062 151.432617188 526.920898438 -7.3642578125 335.0234375 -7.3642578125 c 0
 143.125 -7.3642578125 57.583984375 151.432617188 57.583984375 361.438476562 c 0
 57.583984375 571.444335938 143.125 730.241210938 335.0234375 730.241210938 c 1
 335.0234375 692.125 l 1
 168.780273438 692.125 104.658203125 546.891601562 104.658203125 361.438476562 c 0
 104.658203125 175.985351562 168.780273438 30.7509765625 335.0234375 30.7509765625 c 0
 501.266601562 30.7509765625 565.388671875 175.985351562 565.388671875 361.438476562 c 0
 565.388671875 546.891601562 501.266601562 692.125 335.0234375 692.125 c 1
 335.0234375 730.241210938 l 1
EndSplineSet
EndChar

StartChar: P
Encoding: 80 80 48
Width: 593
Flags: HW
LayerCount: 2
Fore
SplineSet
92.6962890625 722 m 1
 139.76953125 722 l 1
 139.76953125 0.876953125 l 1
 92.6962890625 0.876953125 l 1
 92.6962890625 722 l 1
116.233398438 722 m 1
 335.025390625 722 l 2
 468.390625 722 551.732421875 637.168945312 551.732421875 503.408203125 c 0
 551.732421875 369.647460938 468.390625 284.815429688 335.025390625 284.815429688 c 2
 116.233398438 284.815429688 l 1
 116.233398438 322.931640625 l 1
 335.025390625 322.931640625 l 2
 441.383789062 322.931640625 504.658203125 394.78125 504.658203125 503.408203125 c 0
 504.658203125 612.034179688 441.383789062 683.883789062 335.025390625 683.883789062 c 2
 116.233398438 683.883789062 l 1
 116.233398438 722 l 1
EndSplineSet
EndChar

StartChar: Q
Encoding: 81 81 49
Width: 651
Flags: HW
LayerCount: 2
Fore
SplineSet
334.61328125 730.326171875 m 1
 526.276367188 730.326171875 611.712890625 571.723632812 611.712890625 361.974609375 c 0
 611.712890625 152.225585938 526.276367188 -6.376953125 334.61328125 -6.376953125 c 0
 142.950195312 -6.376953125 57.513671875 152.225585938 57.513671875 361.974609375 c 0
 57.513671875 571.723632812 142.950195312 730.326171875 334.61328125 730.326171875 c 1
 334.61328125 692.2578125 l 1
 168.573242188 692.2578125 104.530273438 547.201171875 104.530273438 361.974609375 c 0
 104.530273438 176.748046875 168.573242188 31.6923828125 334.61328125 31.6923828125 c 0
 500.653320312 31.6923828125 564.696289062 176.748046875 564.696289062 361.974609375 c 0
 564.696289062 547.201171875 500.653320312 692.2578125 334.61328125 692.2578125 c 1
 334.61328125 730.326171875 l 1
358.12109375 1.8544921875 m 1
 358.12109375 -79.90234375 403.536132812 -157.627929688 478.2734375 -157.627929688 c 2
 588.205078125 -157.627929688 l 1
 588.205078125 -195.696289062 l 1
 478.2734375 -195.696289062 l 2
 379.899414062 -195.696289062 311.10546875 -102.142578125 311.10546875 1.8544921875 c 1
 358.12109375 1.8544921875 l 1
EndSplineSet
EndChar

StartChar: R
Encoding: 82 82 50
Width: 593
Flags: HW
LayerCount: 2
Fore
SplineSet
92.6962890625 722 m 1
 139.76953125 722 l 1
 139.76953125 0.876953125 l 1
 92.6962890625 0.876953125 l 1
 92.6962890625 722 l 1
116.233398438 722 m 1
 335.025390625 722 l 2
 468.390625 722 551.732421875 637.168945312 551.732421875 503.408203125 c 0
 551.732421875 369.647460938 468.390625 284.815429688 335.025390625 284.815429688 c 2
 116.233398438 284.815429688 l 1
 116.233398438 322.931640625 l 1
 335.025390625 322.931640625 l 2
 441.383789062 322.931640625 504.658203125 394.78125 504.658203125 503.408203125 c 0
 504.658203125 612.034179688 441.383789062 683.883789062 335.025390625 683.883789062 c 2
 116.233398438 683.883789062 l 1
 116.233398438 722 l 1
358.561523438 303.874023438 m 1
 551.732421875 0.876953125 l 1
 504.658203125 0.876953125 l 1
 311.48828125 303.874023438 l 1
 358.561523438 303.874023438 l 1
EndSplineSet
EndChar

StartChar: S
Encoding: 83 83 51
Width: 573
Flags: HW
LayerCount: 2
Fore
SplineSet
300.404296875 730.241210938 m 0
 390.538085938 730.241210938 475.916992188 689.8046875 533.0234375 620.069335938 c 1
 510.151367188 589.579101562 l 1
 459.795898438 654.283203125 382.39453125 692.125 300.404296875 692.125 c 0
 188.998046875 692.125 104.658203125 646.965820312 104.658203125 545.233398438 c 0
 104.658203125 462.764648438 158.302734375 416.0234375 241.484375 398.341796875 c 2
 356.336914062 373.928710938 l 2
 463.799804688 351.086914062 531.489257812 288.802734375 531.489257812 181.763671875 c 0
 531.489257812 53.2421875 427.970703125 -7.3642578125 288.668945312 -7.3642578125 c 0
 197.58984375 -7.3642578125 111.188476562 32.978515625 52.7138671875 102.807617188 c 1
 75.5859375 133.297851562 l 1
 127.323242188 68.4912109375 205.743164062 30.7509765625 288.668945312 30.7509765625 c 0
 400.731445312 30.7509765625 484.415039062 78.65234375 484.415039062 181.763671875 c 0
 484.415039062 265.702148438 431.752929688 314.88671875 347.588867188 332.776367188 c 2
 232.737304688 357.189453125 l 2
 126.25390625 379.823242188 57.583984375 439.662109375 57.583984375 545.233398438 c 0
 57.583984375 672.359375 161.764648438 730.241210938 300.404296875 730.241210938 c 0
EndSplineSet
EndChar

StartChar: T
Encoding: 84 84 52
Width: 602
Flags: HW
LayerCount: 2
Fore
SplineSet
62.755859375 683.883789062 m 1
 62.755859375 722 l 1
 556.682617188 722 l 1
 556.682617188 683.883789062 l 1
 62.755859375 683.883789062 l 1
286.182617188 702.94140625 m 1
 333.255859375 702.94140625 l 1
 333.255859375 0.876953125 l 1
 286.182617188 0.876953125 l 1
 286.182617188 702.94140625 l 1
EndSplineSet
EndChar

StartChar: U
Encoding: 85 85 53
Width: 627
Flags: HW
LayerCount: 2
Fore
SplineSet
92.6962890625 722 m 1
 139.76953125 722 l 1
 139.76953125 230.552734375 l 2
 139.76953125 111.268554688 206.672851562 30.7509765625 322.37109375 30.7509765625 c 0
 438.349609375 30.7509765625 505.688476562 111.135742188 505.688476562 230.552734375 c 2
 505.688476562 722 l 1
 552.046875 722 l 1
 552.046875 230.552734375 l 2
 552.046875 86.189453125 465.0078125 -7.3642578125 322.37109375 -7.3642578125 c 0
 179.734375 -7.3642578125 92.6962890625 86.189453125 92.6962890625 230.552734375 c 2
 92.6962890625 722 l 1
EndSplineSet
EndChar

StartChar: V
Encoding: 86 86 54
Width: 647
Flags: HW
LayerCount: 2
Fore
SplineSet
46.853515625 722 m 1
 93.9267578125 722 l 1
 350.145507812 0.876953125 l 1
 308.956054688 0.876953125 l 1
 46.853515625 722 l 1
571.774414062 722 m 1
 618.1328125 722 l 1
 373.32421875 0.876953125 l 1
 326.966796875 0.876953125 l 1
 571.774414062 722 l 1
EndSplineSet
EndChar

StartChar: W
Encoding: 87 87 55
Width: 810
Flags: HW
LayerCount: 2
Fore
SplineSet
46.853515625 722 m 1
 93.9267578125 722 l 1
 186.915039062 343.415039062 l 1
 265.1640625 0.876953125 l 1
 223.975585938 0.876953125 l 1
 139.840820312 343.415039062 l 1
 46.853515625 722 l 1
229.859375 0.876953125 m 1
 313.482421875 383.973632812 l 1
 302.952148438 338.903320312 l 1
 392.458984375 722 l 1
 433.6484375 722 l 1
 350.025390625 338.903320312 l 1
 360.555664062 383.973632812 l 1
 271.048828125 0.876953125 l 1
 229.859375 0.876953125 l 1
398.34375 722 m 1
 439.533203125 722 l 1
 529.040039062 338.903320312 l 1
 518.509765625 383.973632812 l 1
 602.1328125 0.876953125 l 1
 560.943359375 0.876953125 l 1
 471.435546875 383.973632812 l 1
 481.965820312 338.903320312 l 1
 398.34375 722 l 1
566.827148438 0.876953125 m 1
 655.0390625 383.973632812 l 1
 738.065429688 722 l 1
 785.138671875 722 l 1
 702.11328125 383.973632812 l 1
 608.016601562 0.876953125 l 1
 566.827148438 0.876953125 l 1
EndSplineSet
EndChar

StartChar: X
Encoding: 88 88 56
Width: 652
Flags: HW
LayerCount: 2
Fore
SplineSet
39.1259765625 722 m 1
 91.19921875 722 l 1
 358.559570312 361.438476562 l 1
 630.919921875 0.876953125 l 1
 578.846679688 0.876953125 l 1
 311.486328125 361.438476562 l 1
 39.1259765625 722 l 1
584.561523438 722 m 1
 630.919921875 722 l 1
 358.202148438 361.438476562 l 1
 85.484375 0.876953125 l 1
 39.1259765625 0.876953125 l 1
 311.84375 361.438476562 l 1
 584.561523438 722 l 1
EndSplineSet
EndChar

StartChar: Y
Encoding: 89 89 57
Width: 583
Flags: HW
LayerCount: 2
Fore
SplineSet
46.853515625 722 m 1
 93.9267578125 722 l 1
 317.25 325.379882812 l 1
 276.060546875 325.379882812 l 1
 46.853515625 722 l 1
505.268554688 722 m 1
 552.341796875 722 l 1
 323.134765625 325.379882812 l 1
 281.9453125 325.379882812 l 1
 505.268554688 722 l 1
276.060546875 325.379882812 m 1
 323.134765625 325.379882812 l 1
 323.134765625 0.876953125 l 1
 276.060546875 0.876953125 l 1
 276.060546875 325.379882812 l 1
EndSplineSet
EndChar

StartChar: Z
Encoding: 90 90 58
Width: 593
Flags: HW
LayerCount: 2
Fore
SplineSet
92.6962890625 683.883789062 m 1
 92.6962890625 722 l 1
 516.620117188 722 l 1
 516.620117188 683.883789062 l 1
 92.6962890625 683.883789062 l 1
92.6962890625 0.876953125 m 1
 92.6962890625 38.9931640625 l 1
 516.620117188 38.9931640625 l 1
 516.620117188 0.876953125 l 1
 92.6962890625 0.876953125 l 1
469.546875 683.883789062 m 1
 516.620117188 683.883789062 l 1
 139.76953125 38.9931640625 l 1
 92.6962890625 38.9931640625 l 1
 469.546875 683.883789062 l 1
EndSplineSet
EndChar

StartChar: bracketleft
Encoding: 91 91 59
Width: 375
Flags: HW
LayerCount: 2
Fore
SplineSet
87.98828125 772.958007812 m 1
 132.670898438 772.958007812 l 1
 132.670898438 -107.110351562 l 1
 87.98828125 -107.110351562 l 1
 87.98828125 772.958007812 l 1
132.670898438 736.77734375 m 1
 132.670898438 772.958007812 l 1
 298.231445312 772.958007812 l 1
 298.231445312 736.77734375 l 1
 132.670898438 736.77734375 l 1
132.670898438 -107.110351562 m 1
 132.670898438 -70.9306640625 l 1
 298.231445312 -70.9306640625 l 1
 298.231445312 -107.110351562 l 1
 132.670898438 -107.110351562 l 1
EndSplineSet
EndChar

StartChar: backslash
Encoding: 92 92 60
Width: 410
Flags: HW
LayerCount: 2
Fore
SplineSet
39.1259765625 730.241210938 m 1
 86.2001953125 730.241210938 l 1
 382.940429688 -7.3642578125 l 1
 335.866210938 -7.3642578125 l 1
 39.1259765625 730.241210938 l 1
EndSplineSet
EndChar

StartChar: bracketright
Encoding: 93 93 61
Width: 375
Flags: HW
LayerCount: 2
Fore
SplineSet
253.547851562 772.958007812 m 1
 298.231445312 772.958007812 l 1
 298.231445312 -107.110351562 l 1
 253.547851562 -107.110351562 l 1
 253.547851562 772.958007812 l 1
253.547851562 736.77734375 m 1
 87.98828125 736.77734375 l 1
 87.98828125 772.958007812 l 1
 253.547851562 772.958007812 l 1
 253.547851562 736.77734375 l 1
253.547851562 -107.110351562 m 1
 87.98828125 -107.110351562 l 1
 87.98828125 -70.9306640625 l 1
 253.547851562 -70.9306640625 l 1
 253.547851562 -107.110351562 l 1
EndSplineSet
EndChar

StartChar: asciicircum
Encoding: 94 94 62
Width: 473
Flags: HW
LayerCount: 2
Fore
SplineSet
55.1171875 646.01171875 m 1
 221.680664062 774.100585938 l 1
 264.6484375 774.100585938 l 1
 431.212890625 646.01171875 l 1
 409.728515625 616.526367188 l 1
 243.165039062 744.615234375 l 1
 243.165039062 744.615234375 l 1
 76.6005859375 616.526367188 l 1
 55.1171875 646.01171875 l 1
EndSplineSet
EndChar

StartChar: underscore
Encoding: 95 95 63
Width: 523
Flags: HW
LayerCount: 2
Fore
SplineSet
92.6962890625 0.876953125 m 1
 445.76953125 0.876953125 l 1
 445.76953125 -37.23828125 l 1
 92.6962890625 -37.23828125 l 1
 92.6962890625 0.876953125 l 1
EndSplineSet
EndChar

StartChar: grave
Encoding: 96 96 64
Width: 265
Flags: HW
LayerCount: 2
Fore
SplineSet
113.798828125 800 m 1
 159.723632812 800 l 1
 180.389648438 598.993164062 l 1
 139.057617188 598.993164062 l 1
 113.798828125 800 l 1
EndSplineSet
EndChar

StartChar: a
Encoding: 97 97 65
Width: 523
Flags: HW
LayerCount: 2
Fore
SplineSet
93.66015625 464.565429688 m 1
 140.103515625 521.016601562 190.487304688 544.809570312 263.588867188 544.809570312 c 0
 377.791992188 544.809570312 445.76953125 467.704101562 445.76953125 351.086914062 c 2
 445.76953125 0.876953125 l 1
 403.403320312 0.876953125 l 1
 398.6953125 114.333007812 l 1
 398.6953125 351.086914062 l 2
 398.6953125 444.474609375 351.927734375 510.743164062 263.588867188 510.743164062 c 0
 198.4921875 510.743164062 153.8203125 487.624023438 116.228515625 434.48046875 c 1
 93.66015625 464.565429688 l 1
422.232421875 294.670898438 m 1
 422.232421875 261.52734375 l 1
 223.869140625 261.52734375 l 2
 150.884765625 261.52734375 104.36328125 216.389648438 104.36328125 143.772460938 c 0
 104.36328125 71.1552734375 150.884765625 26.0166015625 223.869140625 26.0166015625 c 0
 300.530273438 26.0166015625 353.206054688 52.6259765625 398.6953125 114.333007812 c 1
 412.989257812 89.576171875 l 1
 360.512695312 21.6435546875 301.450195312 -7.3642578125 215.609375 -7.3642578125 c 0
 119.997070312 -7.3642578125 57.583984375 49.6025390625 57.583984375 143.772460938 c 0
 57.583984375 239.64453125 124.791992188 294.670898438 223.869140625 294.670898438 c 2
 422.232421875 294.670898438 l 1
EndSplineSet
EndChar

StartChar: b
Encoding: 98 98 66
Width: 577
Flags: HW
LayerCount: 2
Fore
SplineSet
78.2734375 730.241210938 m 1
 125.346679688 730.241210938 l 1
 125.346679688 145.099609375 l 1
 120.639648438 0.876953125 l 1
 78.2734375 0.876953125 l 1
 78.2734375 730.241210938 l 1
108.193359375 430.826171875 m 1
 148.5 501.313476562 223.477539062 544.809570312 304.67578125 544.809570312 c 0
 456.41796875 544.809570312 535.537109375 429.73828125 535.537109375 268.72265625 c 0
 535.537109375 107.706054688 456.41796875 -7.3642578125 304.67578125 -7.3642578125 c 0
 220.353515625 -7.3642578125 143.694335938 41.568359375 108.193359375 118.052734375 c 1
 125.346679688 140.920898438 l 1
 154.112304688 71.7626953125 221.659179688 26.701171875 296.560546875 26.701171875 c 0
 425.834960938 26.701171875 488.462890625 129.326171875 488.462890625 268.72265625 c 0
 488.462890625 408.119140625 425.834960938 510.743164062 296.560546875 510.743164062 c 0
 224.8828125 510.743164062 159.046875 471.219726562 125.346679688 407.958007812 c 1
 108.193359375 430.826171875 l 1
EndSplineSet
EndChar

StartChar: c
Encoding: 99 99 67
Width: 499
Flags: HW
LayerCount: 2
Fore
SplineSet
487.401367188 450.611328125 m 1
 464.529296875 420.12109375 l 1
 417.250976562 483.331054688 362.991210938 510.505859375 284.056640625 510.505859375 c 0
 159.06640625 510.505859375 104.658203125 406.0078125 104.658203125 268.72265625 c 0
 104.658203125 131.436523438 159.06640625 26.939453125 284.056640625 26.939453125 c 0
 355.096679688 26.939453125 421.979492188 60.435546875 464.529296875 117.32421875 c 1
 487.401367188 86.833984375 l 1
 436.75 27.0849609375 362.385742188 -7.3642578125 284.056640625 -7.3642578125 c 0
 133.907226562 -7.3642578125 57.583984375 108.450195312 57.583984375 268.72265625 c 0
 57.583984375 428.994140625 133.907226562 544.809570312 284.056640625 544.809570312 c 0
 371.088867188 544.809570312 431.122070312 516.999023438 487.401367188 450.611328125 c 1
EndSplineSet
EndChar

StartChar: d
Encoding: 100 100 68
Width: 577
Flags: HW
LayerCount: 2
Fore
SplineSet
467.774414062 730.241210938 m 1
 514.84765625 730.241210938 l 1
 514.84765625 0.876953125 l 1
 472.481445312 0.876953125 l 1
 467.774414062 145.099609375 l 1
 467.774414062 730.241210938 l 1
484.927734375 430.826171875 m 1
 467.774414062 407.958007812 l 1
 434.07421875 471.219726562 368.23828125 510.743164062 296.560546875 510.743164062 c 0
 167.286132812 510.743164062 104.658203125 408.119140625 104.658203125 268.72265625 c 0
 104.658203125 129.326171875 167.286132812 26.701171875 296.560546875 26.701171875 c 0
 371.461914062 26.701171875 439.008789062 71.7626953125 467.774414062 140.920898438 c 1
 484.927734375 118.052734375 l 1
 449.426757812 41.568359375 372.767578125 -7.3642578125 288.4453125 -7.3642578125 c 0
 136.703125 -7.3642578125 57.583984375 107.706054688 57.583984375 268.72265625 c 0
 57.583984375 429.73828125 136.703125 544.809570312 288.4453125 544.809570312 c 0
 369.643554688 544.809570312 444.62109375 501.313476562 484.927734375 430.826171875 c 1
EndSplineSet
EndChar

StartChar: e
Encoding: 101 101 69
Width: 538
Flags: HW
LayerCount: 2
Fore
SplineSet
490.21484375 261.607421875 m 1
 449.283203125 261.607421875 l 1
 449.283203125 294.590820312 l 2
 449.283203125 415.985351562 399.034179688 507.408203125 287.858398438 507.408203125 c 0
 168.948242188 507.408203125 104.658203125 419.614257812 104.658203125 294.590820312 c 2
 104.658203125 278.098632812 l 1
 104.658203125 261.607421875 l 2
 104.658203125 128.19140625 164.25 29.798828125 287.858398438 29.798828125 c 0
 356.12890625 29.798828125 422.022460938 54.865234375 473.03125 100.241210938 c 1
 495.33203125 70.513671875 l 1
 437.875 20.3046875 364.161132812 -7.3642578125 287.858398438 -7.3642578125 c 0
 133.999023438 -7.3642578125 57.583984375 113.033203125 57.583984375 278.098632812 c 0
 57.583984375 434.90234375 138.581054688 544.809570312 287.858398438 544.809570312 c 0
 427.0625 544.809570312 496.0625 435.75 496.0625 286.344726562 c 0
 496.0625 276.802734375 494.48828125 270.139648438 490.21484375 261.607421875 c 1
81.12109375 261.607421875 m 1
 81.12109375 294.590820312 l 1
 496.0625 294.590820312 l 1
 490.21484375 261.607421875 l 1
 81.12109375 261.607421875 l 1
EndSplineSet
EndChar

StartChar: f
Encoding: 102 102 70
Width: 415
Flags: HW
LayerCount: 2
Fore
SplineSet
173.025390625 0.876953125 m 1
 173.025390625 604.821289062 l 2
 173.025390625 692.682617188 215.208007812 755.99609375 297.64453125 755.99609375 c 0
 323.637695312 755.99609375 349.616210938 754.778320312 375.495117188 752.34765625 c 1
 369.54296875 718.594726562 l 1
 305.759765625 718.594726562 l 2
 245.276367188 718.594726562 220.099609375 670.997070312 220.099609375 604.821289062 c 2
 220.099609375 0.876953125 l 1
 173.025390625 0.876953125 l 1
92.6962890625 536.567382812 m 1
 369.54296875 536.567382812 l 1
 369.54296875 502.501953125 l 1
 92.6962890625 502.501953125 l 1
 92.6962890625 536.567382812 l 1
EndSplineSet
EndChar

StartChar: g
Encoding: 103 103 71
Width: 542
Flags: HW
LayerCount: 2
Fore
SplineSet
255.590820312 545.122070312 m 1
 372.934570312 545.122070312 453.66796875 481.856445312 453.66796875 369.090820312 c 0
 453.66796875 256.325195312 372.934570312 193.059570312 255.590820312 193.059570312 c 0
 138.247070312 193.059570312 57.513671875 256.325195312 57.513671875 369.090820312 c 0
 57.513671875 481.856445312 138.247070312 545.122070312 255.590820312 545.122070312 c 1
 255.590820312 512.01953125 l 1
 164.225585938 512.01953125 103.905273438 458.624023438 103.905273438 369.090820312 c 0
 103.905273438 279.557617188 164.225585938 226.162109375 255.590820312 226.162109375 c 0
 346.956054688 226.162109375 407.276367188 279.557617188 407.276367188 369.090820312 c 0
 407.276367188 458.624023438 346.956054688 512.01953125 255.590820312 512.01953125 c 1
 255.590820312 545.122070312 l 1
343.03125 498.821289062 m 1
 343.03125 536.890625 l 1
 504.887695312 536.890625 l 1
 504.887695312 498.821289062 l 1
 343.03125 498.821289062 l 1
255.590820312 209.611328125 m 1
 255.590820312 193.059570312 l 1
 174.766601562 193.059570312 103.942382812 185.689453125 103.942382812 116.239257812 c 0
 103.942382812 62.6455078125 166.391601562 39.41796875 227.529296875 39.41796875 c 2
 398.578125 39.41796875 l 2
 455.65234375 39.41796875 504.887695312 1.40234375 504.887695312 -53.0654296875 c 0
 504.887695312 -172.141601562 387.969726562 -195.696289062 250.297851562 -195.696289062 c 0
 141.640625 -195.696289062 57.513671875 -155.853515625 57.513671875 -57.8486328125 c 0
 57.513671875 -12.4609375 90.609375 26.6728515625 134.603515625 26.6728515625 c 1
 125.5703125 1.8544921875 l 1
 103.956054688 -6.0126953125 103.942382812 -33.5986328125 103.942382812 -57.8486328125 c 0
 103.942382812 -124.836914062 176.044921875 -162.594726562 250.297851562 -162.594726562 c 0
 349.772460938 -162.594726562 458.752929688 -146.310546875 458.752929688 -60.9111328125 c 0
 458.752929688 -26.70703125 432.29296875 1.8544921875 398.578125 1.8544921875 c 2
 227.529296875 1.8544921875 l 2
 138.723632812 1.8544921875 50.900390625 40.73828125 57.513671875 116.239257812 c 0
 64.5224609375 196.259765625 164.87109375 209.611328125 255.590820312 209.611328125 c 1
EndSplineSet
EndChar

StartChar: h
Encoding: 104 104 72
Width: 543
Flags: HW
LayerCount: 2
Fore
SplineSet
92.6962890625 722 m 1
 139.76953125 722 l 1
 139.76953125 0.876953125 l 1
 92.6962890625 0.876953125 l 1
 92.6962890625 722 l 1
123.90234375 384.5390625 m 1
 145.159179688 488.200195312 214.553710938 544.809570312 320.373046875 544.809570312 c 0
 426.14453125 544.809570312 480.435546875 463.740234375 480.435546875 351.086914062 c 2
 480.435546875 0.876953125 l 1
 433.361328125 0.876953125 l 1
 433.361328125 351.086914062 l 2
 433.361328125 442.158203125 395.663085938 510.743164062 312.2578125 510.743164062 c 0
 216.793945312 510.743164062 154.678710938 457.678710938 139.76953125 363.385742188 c 1
 123.90234375 384.5390625 l 1
EndSplineSet
EndChar

StartChar: i
Encoding: 105 105 73
Width: 296
Flags: HW
LayerCount: 2
Fore
SplineSet
57.583984375 498.452148438 m 1
 57.583984375 536.567382812 l 1
 183.201171875 536.567382812 l 1
 183.201171875 498.452148438 l 1
 57.583984375 498.452148438 l 1
159.6640625 536.567382812 m 1
 206.737304688 536.567382812 l 1
 206.737304688 0.876953125 l 1
 159.6640625 0.876953125 l 1
 159.6640625 536.567382812 l 1
212.033203125 691.09375 m 0
 212.033203125 683.447265625 208.995117188 676.114257812 203.587890625 670.70703125 c 0
 198.181640625 665.299804688 190.84765625 662.26171875 183.201171875 662.26171875 c 0
 175.553710938 662.26171875 168.220703125 665.299804688 162.813476562 670.70703125 c 0
 157.40625 676.114257812 154.368164062 683.447265625 154.368164062 691.09375 c 0
 154.368164062 698.741210938 157.40625 706.07421875 162.813476562 711.481445312 c 0
 168.220703125 716.888671875 175.553710938 719.926757812 183.201171875 719.926757812 c 0
 190.84765625 719.926757812 198.181640625 716.888671875 203.587890625 711.481445312 c 0
 208.995117188 706.07421875 212.033203125 698.741210938 212.033203125 691.09375 c 0
EndSplineSet
EndChar

StartChar: j
Encoding: 106 106 74
Width: 266
Flags: HW
LayerCount: 2
Fore
SplineSet
125.708984375 536.890625 m 1
 172.725585938 536.890625 l 1
 172.725585938 1.8544921875 l 2
 172.725585938 -103.15234375 164.76171875 -195.696289062 74.58203125 -195.696289062 c 2
 12.7421875 -195.696289062 l 1
 12.7421875 -157.627929688 l 1
 74.58203125 -157.627929688 l 2
 125.696289062 -157.627929688 125.708984375 -70.4951171875 125.708984375 1.8544921875 c 2
 125.708984375 536.890625 l 1
178.014648438 691.227539062 m 0
 178.014648438 683.58984375 174.979492188 676.265625 169.579101562 670.865234375 c 0
 164.178710938 665.46484375 156.854492188 662.4296875 149.216796875 662.4296875 c 0
 141.579101562 662.4296875 134.254882812 665.46484375 128.854492188 670.865234375 c 0
 123.454101562 676.265625 120.419921875 683.58984375 120.419921875 691.227539062 c 0
 120.419921875 698.865234375 123.454101562 706.189453125 128.854492188 711.58984375 c 0
 134.254882812 716.990234375 141.579101562 720.024414062 149.216796875 720.024414062 c 0
 156.854492188 720.024414062 164.178710938 716.990234375 169.579101562 711.58984375 c 0
 174.979492188 706.189453125 178.014648438 698.865234375 178.014648438 691.227539062 c 0
EndSplineSet
EndChar

StartChar: k
Encoding: 107 107 75
Width: 504
Flags: HW
LayerCount: 2
Fore
SplineSet
92.6962890625 722 m 1
 139.76953125 722 l 1
 139.76953125 0.876953125 l 1
 92.6962890625 0.876953125 l 1
 92.6962890625 722 l 1
356.7890625 536.567382812 m 1
 439.369140625 536.567382812 l 1
 186.84375 268.72265625 l 1
 439.369140625 0.876953125 l 1
 356.7890625 0.876953125 l 1
 139.76953125 268.72265625 l 1
 356.7890625 536.567382812 l 1
163.306640625 249.665039062 m 1
 116.233398438 249.665039062 l 1
 116.233398438 287.780273438 l 1
 163.306640625 287.780273438 l 1
 163.306640625 249.665039062 l 1
EndSplineSet
EndChar

StartChar: l
Encoding: 108 108 76
Width: 256
Flags: HW
LayerCount: 2
Fore
SplineSet
109.053710938 730.241210938 m 1
 156.127929688 730.241210938 l 1
 156.127929688 114.709960938 l 2
 156.127929688 71.31640625 174.846679688 38.9931640625 214.829101562 38.9931640625 c 2
 252.658203125 38.9931640625 l 1
 252.658203125 0.876953125 l 1
 214.829101562 0.876953125 l 2
 148.228515625 0.876953125 109.053710938 46.42578125 109.053710938 114.709960938 c 2
 109.053710938 730.241210938 l 1
EndSplineSet
EndChar

StartChar: m
Encoding: 109 109 77
Width: 810
Flags: HW
LayerCount: 2
Fore
SplineSet
92.6962890625 536.567382812 m 1
 139.76953125 536.567382812 l 1
 139.76953125 0.876953125 l 1
 92.6962890625 0.876953125 l 1
 92.6962890625 536.567382812 l 1
123.90234375 440.544921875 m 1
 157.533203125 504.650390625 223.950195312 544.809570312 296.341796875 544.809570312 c 0
 365.0703125 544.809570312 410.11328125 507.923828125 423.665039062 440.544921875 c 1
 457.295898438 504.650390625 523.712890625 544.809570312 596.10546875 544.809570312 c 0
 696.072265625 544.809570312 739.295898438 460.998046875 739.295898438 351.086914062 c 2
 739.295898438 0.876953125 l 1
 692.221679688 0.876953125 l 1
 692.221679688 351.086914062 l 2
 692.221679688 439.577148438 666.237304688 510.743164062 587.990234375 510.743164062 c 0
 525.231445312 510.743164062 467.818359375 475.415039062 439.533203125 419.391601562 c 1
 439.533203125 351.086914062 l 1
 439.533203125 0.876953125 l 1
 392.458984375 0.876953125 l 1
 392.458984375 351.086914062 l 2
 392.458984375 439.577148438 366.474609375 510.743164062 288.227539062 510.743164062 c 0
 225.46875 510.743164062 168.055664062 475.415039062 139.76953125 419.391601562 c 1
 123.90234375 440.544921875 l 1
EndSplineSet
EndChar

StartChar: n
Encoding: 110 110 78
Width: 533
Flags: HW
LayerCount: 2
Fore
SplineSet
63.8505859375 536.567382812 m 1
 110.924804688 536.567382812 l 1
 110.924804688 0.876953125 l 1
 63.8505859375 0.876953125 l 1
 63.8505859375 536.567382812 l 1
95.056640625 432.006835938 m 1
 140.620117188 502.346679688 218.719726562 544.809570312 302.52734375 544.809570312 c 0
 411.15234375 544.809570312 470.313476562 465.072265625 470.313476562 351.086914062 c 2
 470.313476562 0.876953125 l 1
 423.240234375 0.876953125 l 1
 423.240234375 351.086914062 l 2
 423.240234375 443.412109375 380.477539062 510.743164062 294.412109375 510.743164062 c 0
 220.26171875 510.743164062 151.171875 473.131835938 110.924804688 410.853515625 c 1
 95.056640625 432.006835938 l 1
EndSplineSet
EndChar

StartChar: o
Encoding: 111 111 79
Width: 568
Flags: HW
LayerCount: 2
Fore
SplineSet
292.006835938 544.809570312 m 1
 444.080078125 544.809570312 526.428710938 432.66796875 526.428710938 272.84375 c 0
 526.428710938 109.404296875 446.055664062 -7.3642578125 292.006835938 -7.3642578125 c 0
 137.95703125 -7.3642578125 57.583984375 109.404296875 57.583984375 272.84375 c 0
 57.583984375 432.66796875 139.93359375 544.809570312 292.006835938 544.809570312 c 1
 292.006835938 510.743164062 l 1
 165.380859375 510.743164062 104.658203125 409.65625 104.658203125 272.84375 c 0
 104.658203125 132.336914062 163.206054688 26.701171875 292.006835938 26.701171875 c 0
 420.807617188 26.701171875 479.35546875 132.336914062 479.35546875 272.84375 c 0
 479.35546875 409.65625 418.631835938 510.743164062 292.006835938 510.743164062 c 1
 292.006835938 544.809570312 l 1
EndSplineSet
EndChar

StartChar: p
Encoding: 112 112 80
Width: 576
Flags: HW
LayerCount: 2
Fore
SplineSet
78.177734375 536.890625 m 1
 120.4921875 536.890625 l 1
 125.193359375 429.884765625 l 1
 125.193359375 -195.696289062 l 1
 78.177734375 -195.696289062 l 1
 78.177734375 536.890625 l 1
108.060546875 431.27734375 m 1
 148.318359375 501.6796875 223.204101562 545.122070312 304.302734375 545.122070312 c 0
 455.859375 545.122070312 534.881835938 430.19140625 534.881835938 269.372070312 c 0
 534.881835938 108.553710938 455.859375 -6.376953125 304.302734375 -6.376953125 c 0
 220.083984375 -6.376953125 143.518554688 42.49609375 108.060546875 118.887695312 c 1
 125.193359375 141.727539062 l 1
 153.923828125 72.654296875 221.387695312 27.6474609375 296.197265625 27.6474609375 c 0
 425.313476562 27.6474609375 487.865234375 130.146484375 487.865234375 269.372070312 c 0
 487.865234375 408.598632812 425.313476562 511.09765625 296.197265625 511.09765625 c 0
 224.608398438 511.09765625 158.8515625 471.622070312 125.193359375 408.4375 c 1
 108.060546875 431.27734375 l 1
EndSplineSet
EndChar

StartChar: q
Encoding: 113 113 81
Width: 576
Flags: HW
LayerCount: 2
Fore
SplineSet
471.903320312 536.890625 m 1
 514.217773438 536.890625 l 1
 514.217773438 -195.696289062 l 1
 467.202148438 -195.696289062 l 1
 467.202148438 429.884765625 l 1
 471.903320312 536.890625 l 1
484.334960938 431.27734375 m 1
 467.202148438 408.4375 l 1
 433.543945312 471.622070312 367.787109375 511.09765625 296.197265625 511.09765625 c 0
 167.08203125 511.09765625 104.530273438 408.598632812 104.530273438 269.372070312 c 0
 104.530273438 130.146484375 167.08203125 27.6474609375 296.197265625 27.6474609375 c 0
 371.0078125 27.6474609375 438.471679688 72.654296875 467.202148438 141.727539062 c 1
 484.334960938 118.887695312 l 1
 448.876953125 42.49609375 372.311523438 -6.376953125 288.092773438 -6.376953125 c 0
 136.536132812 -6.376953125 57.513671875 108.553710938 57.513671875 269.372070312 c 0
 57.513671875 430.19140625 136.536132812 545.122070312 288.092773438 545.122070312 c 0
 369.19140625 545.122070312 444.077148438 501.6796875 484.334960938 431.27734375 c 1
EndSplineSet
EndChar

StartChar: r
Encoding: 114 114 82
Width: 355
Flags: HW
LayerCount: 2
Fore
SplineSet
92.6962890625 536.567382812 m 1
 139.76953125 536.567382812 l 1
 139.76953125 0.876953125 l 1
 92.6962890625 0.876953125 l 1
 92.6962890625 536.567382812 l 1
119.756835938 433.93359375 m 1
 196.938476562 491.831054688 250.489257812 544.809570312 347.16796875 544.809570312 c 1
 347.16796875 506.693359375 l 1
 259.326171875 506.693359375 209.91796875 459.875976562 139.76953125 407.254882812 c 1
 119.756835938 433.93359375 l 1
EndSplineSet
EndChar

StartChar: s
Encoding: 115 115 83
Width: 464
Flags: HW
LayerCount: 2
Fore
SplineSet
252.543945312 544.809570312 m 0
 318.907226562 544.809570312 382.666992188 518.9921875 430.333007812 472.819335938 c 1
 407.747070312 442.709960938 l 1
 366.6484375 483.9921875 310.796875 507.200195312 252.543945312 507.200195312 c 0
 177.756835938 507.200195312 104.069335938 471.759765625 104.069335938 404.8828125 c 0
 104.069335938 347.473632812 142.125976562 315.737304688 200.041992188 302.56640625 c 2
 287.0234375 282.78515625 l 2
 375.087890625 262.7578125 438.609375 221.735351562 438.609375 136.002929688 c 0
 438.609375 29.66015625 342.984375 -7.3642578125 223.173828125 -7.3642578125 c 0
 156.779296875 -7.3642578125 93.7861328125 22.0078125 51.1064453125 72.8671875 c 1
 73.693359375 102.9765625 l 1
 109.706054688 57.0625 164.821289062 30.2451171875 223.173828125 30.2451171875 c 0
 306.849609375 30.2451171875 392.124023438 62.5673828125 392.124023438 136.002929688 c 0
 392.124023438 199.1484375 343.053710938 226.896484375 277.693359375 241.760742188 c 2
 190.712890625 261.541992188 l 2
 110.040039062 279.888671875 57.583984375 324.756835938 57.583984375 404.8828125 c 0
 57.583984375 504.157226562 142.580078125 544.809570312 252.543945312 544.809570312 c 0
EndSplineSet
EndChar

StartChar: t
Encoding: 116 116 84
Width: 415
Flags: HW
LayerCount: 2
Fore
SplineSet
57.583984375 498.452148438 m 1
 57.583984375 536.567382812 l 1
 369.54296875 536.567382812 l 1
 369.54296875 498.452148438 l 1
 57.583984375 498.452148438 l 1
173.025390625 668.427734375 m 1
 220.099609375 722 l 1
 220.099609375 111.749023438 l 2
 220.099609375 61.513671875 252.263671875 30.2744140625 302.744140625 30.2744140625 c 2
 369.125976562 30.2744140625 l 1
 369.422851562 -3.7900390625 l 1
 343.28125 -6.4365234375 324.890625 -7.3642578125 298.615234375 -7.3642578125 c 0
 222.8203125 -7.3642578125 173.025390625 37.3095703125 173.025390625 111.749023438 c 2
 173.025390625 668.427734375 l 1
EndSplineSet
EndChar

StartChar: u
Encoding: 117 117 85
Width: 533
Flags: HW
LayerCount: 2
Fore
SplineSet
437.663085938 536.567382812 m 1
 484.736328125 536.567382812 l 1
 484.736328125 0.876953125 l 1
 437.663085938 0.876953125 l 1
 437.663085938 536.567382812 l 1
63.8505859375 536.567382812 m 1
 110.924804688 536.567382812 l 1
 110.924804688 186.358398438 l 2
 110.924804688 93.02734375 157.483398438 26.701171875 245.701171875 26.701171875 c 0
 332.678710938 26.701171875 409.944335938 82.2392578125 437.663085938 164.682617188 c 1
 454.81640625 141.814453125 l 1
 420.170898438 51.927734375 333.774414062 -7.3642578125 237.44140625 -7.3642578125 c 0
 126.604492188 -7.3642578125 63.8505859375 71.3359375 63.8505859375 186.358398438 c 2
 63.8505859375 536.567382812 l 1
EndSplineSet
EndChar

StartChar: v
Encoding: 118 118 86
Width: 548
Flags: HW
LayerCount: 2
Fore
SplineSet
46.853515625 536.567382812 m 1
 93.9267578125 536.567382812 l 1
 299.537109375 0.876953125 l 1
 258.348632812 0.876953125 l 1
 46.853515625 536.567382812 l 1
469.84375 536.567382812 m 1
 516.916992188 536.567382812 l 1
 305.421875 0.876953125 l 1
 264.232421875 0.876953125 l 1
 469.84375 536.567382812 l 1
EndSplineSet
EndChar

StartChar: w
Encoding: 119 119 87
Width: 741
Flags: HW
LayerCount: 2
Fore
SplineSet
46.853515625 536.567382812 m 1
 93.9267578125 536.567382812 l 1
 177.383789062 255.333007812 l 1
 247.008789062 0.876953125 l 1
 205.819335938 0.876953125 l 1
 130.309570312 255.333007812 l 1
 46.853515625 536.567382812 l 1
211.704101562 0.876953125 m 1
 286.15234375 285.462890625 l 1
 276.701171875 251.982421875 l 1
 357.033203125 536.567382812 l 1
 398.22265625 536.567382812 l 1
 323.774414062 251.982421875 l 1
 333.225585938 285.462890625 l 1
 252.893554688 0.876953125 l 1
 211.704101562 0.876953125 l 1
362.91796875 536.567382812 m 1
 404.107421875 536.567382812 l 1
 484.439453125 251.982421875 l 1
 474.98828125 285.462890625 l 1
 549.436523438 0.876953125 l 1
 508.247070312 0.876953125 l 1
 427.915039062 285.462890625 l 1
 437.366210938 251.982421875 l 1
 362.91796875 536.567382812 l 1
514.131835938 0.876953125 m 1
 592.698242188 285.462890625 l 1
 667.213867188 536.567382812 l 1
 714.288085938 536.567382812 l 1
 639.772460938 285.462890625 l 1
 555.321289062 0.876953125 l 1
 514.131835938 0.876953125 l 1
EndSplineSet
EndChar

StartChar: x
Encoding: 120 120 88
Width: 509
Flags: HW
LayerCount: 2
Fore
SplineSet
39.1259765625 536.567382812 m 1
 91.1259765625 536.567382812 l 1
 285.177734375 268.72265625 l 1
 484.15625 0.876953125 l 1
 432.15625 0.876953125 l 1
 238.104492188 268.72265625 l 1
 39.1259765625 536.567382812 l 1
432.15625 536.567382812 m 1
 484.15625 536.567382812 l 1
 285.177734375 268.72265625 l 1
 91.1259765625 0.876953125 l 1
 39.1259765625 0.876953125 l 1
 238.104492188 268.72265625 l 1
 432.15625 536.567382812 l 1
EndSplineSet
EndChar

StartChar: y
Encoding: 121 121 89
Width: 547
Flags: HW
LayerCount: 2
Fore
SplineSet
39.078125 536.890625 m 1
 86.0947265625 536.890625 l 1
 195.571289062 269.373046875 l 1
 299.170898438 1.85546875 l 1
 258.032226562 1.85546875 l 1
 148.5546875 269.373046875 l 1
 39.078125 536.890625 l 1
476.985351562 536.890625 m 1
 524.001953125 536.890625 l 1
 414.525390625 269.373046875 l 1
 305.047851562 1.85546875 l 1
 263.909179688 1.85546875 l 1
 367.508789062 269.373046875 l 1
 476.985351562 536.890625 l 1
258.032226562 1.85546875 m 1
 305.047851562 1.85546875 l 1
 224.203125 -195.696289062 l 1
 177.1875 -195.696289062 l 1
 258.032226562 1.85546875 l 1
EndSplineSet
EndChar

StartChar: z
Encoding: 122 122 90
Width: 513
Flags: HW
LayerCount: 2
Fore
SplineSet
92.6962890625 498.452148438 m 1
 92.6962890625 536.567382812 l 1
 435.647460938 536.567382812 l 1
 435.647460938 498.452148438 l 1
 92.6962890625 498.452148438 l 1
92.6962890625 0.876953125 m 1
 92.6962890625 38.9931640625 l 1
 435.647460938 38.9931640625 l 1
 435.647460938 0.876953125 l 1
 92.6962890625 0.876953125 l 1
411.771484375 533.092773438 m 1
 435.647460938 498.452148438 l 1
 116.572265625 4.3525390625 l 1
 92.6962890625 38.9931640625 l 1
 411.771484375 533.092773438 l 1
EndSplineSet
EndChar

StartChar: braceleft
Encoding: 123 123 91
Width: 328
Flags: HW
LayerCount: 2
Fore
SplineSet
283.521484375 772.958007812 m 1
 283.521484375 736.77734375 l 1
 251.268554688 736.77734375 230.961914062 716.471679688 230.961914062 684.217773438 c 2
 230.961914062 403.573242188 l 2
 230.961914062 349.049804688 190.935546875 319.356445312 133.719726562 319.356445312 c 1
 133.719726562 351.013671875 l 1
 165.97265625 351.013671875 186.279296875 371.319335938 186.279296875 403.573242188 c 2
 186.279296875 684.217773438 l 2
 186.279296875 740.4765625 225.491210938 772.958007812 283.521484375 772.958007812 c 1
133.719726562 346.491210938 m 1
 190.935546875 346.491210938 230.961914062 316.797851562 230.961914062 262.2734375 c 2
 230.961914062 -18.37109375 l 2
 230.961914062 -50.6240234375 251.268554688 -70.9306640625 283.521484375 -70.9306640625 c 1
 283.521484375 -107.110351562 l 1
 225.491210938 -107.110351562 186.279296875 -74.6298828125 186.279296875 -18.37109375 c 2
 186.279296875 262.2734375 l 2
 186.279296875 294.52734375 165.97265625 314.833984375 133.719726562 314.833984375 c 1
 133.719726562 346.491210938 l 1
EndSplineSet
EndChar

StartChar: bar
Encoding: 124 124 92
Width: 337
Flags: HW
LayerCount: 2
Fore
SplineSet
150.828125 800 m 1
 196.752929688 800 l 1
 196.752929688 -104.529296875 l 1
 150.828125 -104.529296875 l 1
 150.828125 800 l 1
EndSplineSet
EndChar

StartChar: braceright
Encoding: 125 125 93
Width: 328
Flags: HW
LayerCount: 2
Fore
SplineSet
54.734375 738.051757812 m 1
 54.734375 774.28125 l 1
 112.84375 774.28125 152.108398438 741.755859375 152.108398438 685.420898438 c 2
 152.108398438 404.39453125 l 2
 152.108398438 372.096679688 172.442382812 351.762695312 204.740234375 351.762695312 c 1
 204.740234375 315.534179688 l 1
 146.629882812 315.534179688 107.365234375 348.059570312 107.365234375 404.39453125 c 2
 107.365234375 685.420898438 l 2
 107.365234375 717.717773438 87.03125 738.051757812 54.734375 738.051757812 c 1
204.740234375 315.534179688 m 1
 172.442382812 315.534179688 152.108398438 295.200195312 152.108398438 262.90234375 c 2
 152.108398438 -18.1240234375 l 2
 152.108398438 -74.458984375 112.84375 -106.984375 54.734375 -106.984375 c 1
 54.734375 -70.7548828125 l 1
 87.03125 -70.7548828125 107.365234375 -50.4208984375 107.365234375 -18.1240234375 c 2
 107.365234375 262.90234375 l 2
 107.365234375 317.500976562 147.446289062 347.234375 204.740234375 347.234375 c 1
 204.740234375 315.534179688 l 1
EndSplineSet
EndChar

StartChar: asciitilde
Encoding: 126 126 94
Width: 617
Flags: HW
LayerCount: 2
Fore
SplineSet
57.583984375 208.455078125 m 1
 57.583984375 277.434570312 119.357421875 328.990234375 190.693359375 328.990234375 c 0
 245.157226562 328.990234375 283.067382812 316.770507812 327.279296875 284.96484375 c 1
 307.341796875 252.479492188 l 1
 269.809570312 280.189453125 237.345703125 290.875 190.693359375 290.875 c 0
 140.366210938 290.875 95.7001953125 256.44140625 95.7001953125 208.455078125 c 1
 57.583984375 208.455078125 l 1
577.037109375 328.990234375 m 1
 577.037109375 260.010742188 515.264648438 208.455078125 443.927734375 208.455078125 c 0
 389.463867188 208.455078125 351.553710938 220.673828125 307.341796875 252.479492188 c 1
 327.279296875 284.96484375 l 1
 364.8125 257.255859375 397.275390625 246.5703125 443.927734375 246.5703125 c 0
 494.254882812 246.5703125 538.920898438 281.002929688 538.920898438 328.990234375 c 1
 577.037109375 328.990234375 l 1
EndSplineSet
EndChar
